<svg width="282" height="75" viewBox="0 0 282 75" fill="none" xmlns="http://www.w3.org/2000/svg">
<path d="M2.112 47.472C2.112 43.0347 3.072 39.088 4.992 35.632C6.912 32.1333 9.57867 29.424 12.992 27.504C16.448 25.5413 20.352 24.56 24.704 24.56C30.0373 24.56 34.6027 25.968 38.4 28.784C42.1973 31.6 44.736 35.44 46.016 40.304H33.984C33.088 38.4267 31.808 36.9973 30.144 36.016C28.5227 35.0347 26.6667 34.544 24.576 34.544C21.2053 34.544 18.4747 35.7173 16.384 38.064C14.2933 40.4107 13.248 43.5467 13.248 47.472C13.248 51.3973 14.2933 54.5333 16.384 56.88C18.4747 59.2267 21.2053 60.4 24.576 60.4C26.6667 60.4 28.5227 59.9093 30.144 58.928C31.808 57.9467 33.088 56.5173 33.984 54.64H46.016C44.736 59.504 42.1973 63.344 38.4 66.16C34.6027 68.9333 30.0373 70.32 24.704 70.32C20.352 70.32 16.448 69.36 12.992 67.44C9.57867 65.4773 6.912 62.768 4.992 59.312C3.072 55.856 2.112 51.9093 2.112 47.472ZM68.974 70.512C65.4753 70.512 62.318 69.7653 59.502 68.272C56.7287 66.7787 54.5313 64.6453 52.91 61.872C51.3313 59.0987 50.542 55.856 50.542 52.144C50.542 48.4747 51.3527 45.2533 52.974 42.48C54.5953 39.664 56.814 37.5093 59.63 36.016C62.446 34.5227 65.6033 33.776 69.102 33.776C72.6007 33.776 75.758 34.5227 78.574 36.016C81.39 37.5093 83.6087 39.664 85.23 42.48C86.8513 45.2533 87.662 48.4747 87.662 52.144C87.662 55.8133 86.83 59.056 85.166 61.872C83.5447 64.6453 81.3047 66.7787 78.446 68.272C75.63 69.7653 72.4727 70.512 68.974 70.512ZM68.974 61.04C71.0647 61.04 72.8353 60.272 74.286 58.736C75.7793 57.2 76.526 55.0027 76.526 52.144C76.526 49.2853 75.8007 47.088 74.35 45.552C72.942 44.016 71.1927 43.248 69.102 43.248C66.9687 43.248 65.198 44.016 63.79 45.552C62.382 47.0453 61.678 49.2427 61.678 52.144C61.678 55.0027 62.3607 57.2 63.726 58.736C65.134 60.272 66.8833 61.04 68.974 61.04ZM107.996 70.512C104.881 70.512 102.108 69.9787 99.676 68.912C97.244 67.8453 95.324 66.3947 93.916 64.56C92.508 62.6827 91.7187 60.592 91.548 58.288H102.364C102.492 59.5253 103.068 60.528 104.092 61.296C105.116 62.064 106.375 62.448 107.868 62.448C109.233 62.448 110.279 62.192 111.004 61.68C111.772 61.1253 112.156 60.4213 112.156 59.568C112.156 58.544 111.623 57.7973 110.556 57.328C109.489 56.816 107.761 56.2613 105.372 55.664C102.812 55.0667 100.679 54.448 98.972 53.808C97.2653 53.1253 95.7933 52.08 94.556 50.672C93.3187 49.2213 92.7 47.28 92.7 44.848C92.7 42.8 93.2547 40.944 94.364 39.28C95.516 37.5733 97.18 36.2293 99.356 35.248C101.575 34.2667 104.199 33.776 107.228 33.776C111.708 33.776 115.228 34.8853 117.788 37.104C120.391 39.3227 121.884 42.2667 122.268 45.936H112.156C111.985 44.6987 111.431 43.7173 110.492 42.992C109.596 42.2667 108.401 41.904 106.908 41.904C105.628 41.904 104.647 42.16 103.964 42.672C103.281 43.1413 102.94 43.8027 102.94 44.656C102.94 45.68 103.473 46.448 104.54 46.96C105.649 47.472 107.356 47.984 109.66 48.496C112.305 49.1787 114.46 49.8613 116.124 50.544C117.788 51.184 119.239 52.2507 120.476 53.744C121.756 55.1947 122.417 57.1573 122.46 59.632C122.46 61.7227 121.863 63.6 120.668 65.264C119.516 66.8853 117.831 68.1653 115.612 69.104C113.436 70.0427 110.897 70.512 107.996 70.512ZM171.332 25.072L155.396 70H141.7L125.764 25.072H137.412L148.548 58.992L159.748 25.072H171.332Z" fill="#9A0E23"/>
<path d="M236.872 60.72V70H231.304C227.336 70 224.243 69.04 222.024 67.12C219.805 65.1573 218.696 61.9787 218.696 57.584V43.376H214.344V34.288H218.696V25.584H229.64V34.288H236.808V43.376H229.64V57.712C229.64 58.7787 229.896 59.5467 230.408 60.016C230.92 60.4853 231.773 60.72 232.968 60.72H236.872ZM276.632 51.568C276.632 52.592 276.568 53.6587 276.44 54.768H251.672C251.843 56.9867 252.547 58.6933 253.784 59.888C255.064 61.04 256.621 61.616 258.456 61.616C261.187 61.616 263.085 60.464 264.152 58.16H275.8C275.203 60.5067 274.115 62.6187 272.536 64.496C271 66.3733 269.059 67.8453 266.712 68.912C264.365 69.9787 261.741 70.512 258.84 70.512C255.341 70.512 252.227 69.7653 249.496 68.272C246.765 66.7787 244.632 64.6453 243.096 61.872C241.56 59.0987 240.792 55.856 240.792 52.144C240.792 48.432 241.539 45.1893 243.032 42.416C244.568 39.6427 246.701 37.5093 249.432 36.016C252.163 34.5227 255.299 33.776 258.84 33.776C262.296 33.776 265.368 34.5013 268.056 35.952C270.744 37.4027 272.835 39.472 274.328 42.16C275.864 44.848 276.632 47.984 276.632 51.568ZM265.432 48.688C265.432 46.8107 264.792 45.3173 263.512 44.208C262.232 43.0987 260.632 42.544 258.712 42.544C256.877 42.544 255.32 43.0773 254.04 44.144C252.803 45.2107 252.035 46.7253 251.736 48.688H265.432Z" fill="#9A0E23"/>
<circle cx="190.029" cy="53.0294" r="20.0294" fill="#9A0E23"/>
<path d="M201.707 55.1842L201.732 55.2556L201.758 55.3707L201.77 55.4858V62.9865C201.769 63.1954 201.694 63.3973 201.556 63.5546C201.418 63.7118 201.228 63.8139 201.021 63.8417L200.906 63.8498H179.612C179.403 63.8498 179.202 63.7742 179.044 63.6371C178.887 63.5 178.785 63.3106 178.757 63.1039L178.748 62.9865V55.5042L178.751 55.4444L178.762 55.3454C178.776 55.2853 178.794 55.2264 178.816 55.1693L181.993 48.2407C182.053 48.1097 182.145 47.9958 182.26 47.9094C182.376 47.8229 182.511 47.7667 182.653 47.7457L182.777 47.7377L185.701 47.7365L184.792 49.3136L184.715 49.4632H183.33L180.956 54.6409H199.549L197.216 49.6382L198.208 47.915C198.286 47.9733 198.352 48.0439 198.406 48.1268L198.467 48.2361L201.707 55.1842ZM191.831 40.892L191.937 40.9438L197.909 44.4006C198.286 44.6193 198.436 45.0809 198.276 45.4746L198.224 45.5805L194.993 51.1876H196.303C196.523 51.1853 196.736 51.2674 196.898 51.417C197.06 51.5665 197.158 51.7723 197.173 51.9921C197.188 52.2118 197.118 52.4291 196.979 52.5992C196.839 52.7694 196.639 52.8796 196.42 52.9073L196.303 52.9154L193.998 52.9142V52.9177H189.303L189.3 52.9142H184.216C183.999 52.9122 183.79 52.8282 183.632 52.6791C183.474 52.53 183.378 52.3267 183.363 52.1098C183.348 51.8929 183.416 51.6785 183.552 51.5092C183.689 51.3399 183.884 51.2284 184.099 51.1968L184.216 51.1887L186.315 51.1876L186.105 51.0667C185.925 50.9621 185.788 50.7957 185.721 50.5983C185.654 50.4009 185.66 50.1857 185.739 49.9927L185.79 49.8868L190.759 41.2581C190.978 40.8794 191.438 40.7286 191.831 40.8897M191.819 42.8696L187.714 50.0019L189.761 51.1876H193.004L196.302 45.4631L191.819 42.8696Z" fill="white"/>
</svg>
